<?xml version="1.0" encoding="iso-8859-1"?>
<!-- Generator: Adobe Illustrator 19.0.0, SVG Export Plug-In . SVG Version: 6.00 Build 0)  -->
<svg version="1.1" id="Layer_1" xmlns="http://www.w3.org/2000/svg" xmlns:xlink="http://www.w3.org/1999/xlink" x="0px" y="0px"
	 viewBox="0 0 512.001 512.001" style="enable-background:new 0 0 512.001 512.001;" xml:space="preserve">
<g>
	<g>
		<path d="M451.833,269.459c-4.473,0-17.419,0.004-62.425,20.588c-3.56-22.633-10.471-46.541-20.339-69.782
			c-12.256-28.866-28.074-54.912-46.316-76.418c3.014-0.106,6.031-0.159,9.041-0.159c40.896,0,80.503,9.78,111.528,27.538
			c3.888,2.226,8.771,1.653,12.04-1.409s4.156-7.899,2.187-11.922c-26.234-53.624-98.894-89.653-180.804-89.653
			c-15.861,0-31.636,1.347-46.888,4.005c-16.62,2.896-32.609,7.341-47.525,13.214c-0.001,0.001-0.003,0.001-0.004,0.001
			c-10.62,4.182-20.694,9.089-29.944,14.587c-27.882,15.861-53.946,42.605-75.383,77.348
			c-19.705,31.936-34.271,68.946-41.015,104.213c-2.792,14.605-4.209,28.688-4.209,41.854c0,8.579-8.45,19.12-15.905,28.419
			C5.782,364.473-5.657,378.742,3.142,392.612c13.526,21.32,43.339,35.562,91.143,43.539c40.873,6.82,86.747,7.61,117.698,7.61
			c29.488,0,52.656-1.568,72.911-4.936c51.601-8.578,83.774-29.904,98.358-65.195c0.001-0.004,0.002-0.007,0.004-0.011
			c0.831-2.011,1.598-4.078,2.314-6.187c48.115,22.354,61.652,22.359,66.265,22.359c33.176,0,60.167-26.991,60.167-60.167
			C512,296.449,485.01,269.459,451.833,269.459z M211.983,423.365c-32.719,0-61.413-1.251-86.04-3.74
			c7.549-14.641,11.504-30.848,11.504-47.589c0-5.632-4.566-10.198-10.198-10.198c-5.632,0-10.198,4.566-10.198,10.198
			c0,16.044-4.504,31.478-13.047,44.885c-44.82-6.629-72.803-18.352-83.544-35.086c0.096-3.185,7.108-11.932,11.328-17.196
			c9.555-11.92,20.387-25.432,20.387-41.176c0-11.884,1.294-24.677,3.846-38.024c13.54-70.81,57.345-139.773,106.526-167.708
			c0.06-0.034,0.119-0.068,0.178-0.104c5.295-3.151,10.904-6.091,16.762-8.791l90.662,311.506
			C253.684,422.375,234.524,423.365,211.983,423.365z M290.433,417.055l-91.919-315.822c8.798-3.019,17.962-5.519,27.391-7.473
			l136.654,276.2C350.849,394.224,327.695,409.357,290.433,417.055z M370.782,340.589L246.979,90.361
			c9.794-1.145,19.759-1.723,29.768-1.723c37.193,0,72.574,7.821,102.321,22.616c14.515,7.22,27.232,15.979,37.614,25.781
			c-26.192-8.966-55.275-13.744-84.884-13.744c-10.723,0-21.52,0.625-32.09,1.859c-3.903,0.456-7.197,3.112-8.467,6.831
			c-1.271,3.718-0.293,7.836,2.515,10.584c45.218,44.275,78.036,120.354,78.036,180.898
			C371.791,329.45,371.453,335.165,370.782,340.589z M451.833,369.396c-4.378,0-18.997-2.22-61.383-22.197
			c1.154-7.487,1.736-15.412,1.736-23.735c0-3.938-0.13-7.959-0.383-12.048c41.368-19.395,55.718-21.561,60.031-21.561
			c21.93,0,39.771,17.841,39.771,39.771S473.763,369.396,451.833,369.396z"/>
	</g>
</g>
<g>
	<g>
		<path d="M212.176,292.786c-3.982-3.982-10.44-3.982-14.422,0l-46.133,46.134c-3.982,3.983-3.982,10.441,0,14.423l46.133,46.133
			c1.992,1.992,4.601,2.987,7.211,2.987c2.61,0,5.22-0.996,7.211-2.987c14.25-14.25,22.097-33.194,22.097-53.345
			S226.426,307.036,212.176,292.786z M204.304,377.182l-31.05-31.05l31.05-31.05c6.226,9.076,9.574,19.804,9.574,31.05
			C213.877,357.377,210.529,368.105,204.304,377.182z"/>
	</g>
</g>
<g>
	<g>
		<path d="M79.295,343.332c-7.155,0-12.976,5.821-12.976,12.976s5.821,12.976,12.976,12.976s12.976-5.821,12.976-12.976
			S86.449,343.332,79.295,343.332z"/>
	</g>
</g>
<g>
	<g>
		<path d="M131.522,337.337c-2.044-5.779-4.622-11.418-7.662-16.756c-2.787-4.894-9.014-6.603-13.909-3.814
			c-4.894,2.787-6.602,9.015-3.814,13.909c2.443,4.289,4.514,8.817,6.153,13.457c1.48,4.187,5.414,6.803,9.616,6.803
			c1.127,0,2.274-0.189,3.398-0.585C130.616,348.474,133.399,342.647,131.522,337.337z"/>
	</g>
</g>
<g>
</g>
<g>
</g>
<g>
</g>
<g>
</g>
<g>
</g>
<g>
</g>
<g>
</g>
<g>
</g>
<g>
</g>
<g>
</g>
<g>
</g>
<g>
</g>
<g>
</g>
<g>
</g>
<g>
</g>
</svg>
