<?xml version="1.0" encoding="iso-8859-1"?>
<!-- Generator: Adobe Illustrator 17.1.0, SVG Export Plug-In . SVG Version: 6.00 Build 0)  -->
<!DOCTYPE svg PUBLIC "-//W3C//DTD SVG 1.1//EN" "http://www.w3.org/Graphics/SVG/1.1/DTD/svg11.dtd">
<svg version="1.1" id="Capa_1" xmlns="http://www.w3.org/2000/svg" xmlns:xlink="http://www.w3.org/1999/xlink" x="0px" y="0px"
	 viewBox="0 0 197.533 197.533" style="enable-background:new 0 0 197.533 197.533;" xml:space="preserve">
<path d="M113.659,197.533c-3.603,0-8.425-1.04-14.784-3.144c-9.12-3.017-20.86-8.161-30.783-21.272
	c-5.8-7.664-9.59-14.814-10.813-17.239c-4.222-1.823-22.632-9.924-35.426-17.877c-14.119-8.775-17.674-12.548-18.032-12.948
	c-0.486-0.544-0.711-1.273-0.615-1.996c0.097-0.724,0.504-1.368,1.115-1.767c0.115-0.075,11.904-7.894,24.312-25.301
	c5.361-7.521,11.468-15.894,17.931-24.067c0.441-2.832,2.762-12.225,14.952-33.521C76.179,12.783,97.961,5.401,98.881,5.099
	c1.11-0.368,2.322,0.089,2.923,1.09s0.428,2.284-0.416,3.092c-0.074,0.071-7.448,7.181-10.44,14.373
	c-1.289,3.097-1.979,5.895-2.348,8.079c4.646-2.884,9.226-5.386,13.737-7.85c2.993-1.635,6.089-3.326,9.142-5.096
	c13.151-7.624,33.515-18.39,33.719-18.498c1.043-0.55,2.33-0.299,3.087,0.609c0.756,0.905,0.776,2.217,0.047,3.146
	c-0.18,0.229-15.688,20.172-20.44,40.081c5.386,1.059,16.85,4.758,20.856,17.321c1.981,6.211,1.464,13.479,0.092,20.044
	c3.612-4.032,8.146-8.015,13.646-10.952c16.354-8.735,25.61-8.035,25.998-8.003c0.848,0.074,1.599,0.576,1.994,1.329
	c0.396,0.754,0.38,1.657-0.041,2.397c-0.102,0.179-10.18,18.121-10.18,35.92c0,17.563,13.392,34.125,13.527,34.29
	c0.579,0.707,0.727,1.675,0.384,2.521c-0.343,0.848-1.12,1.44-2.027,1.547c-0.654,0.076-16.121,1.816-27.08-2.461
	c-6.821-2.662-13.708-7.687-17.985-11.148c0.15,21.923-2.361,29.286-7.893,37.106c-4.935,6.973-10.88,10.647-18.177,11.233
	c-2.373,0.188-4.832-0.22-7.103-0.89c4.027,5.673,8.375,12.718,8.248,16.546c-0.093,2.764-1.484,4.301-2.636,5.104
	C118.083,197.029,116.166,197.532,113.659,197.533z M61.381,152.894c0.242,0.502,4.203,8.624,10.697,17.206
	c9.091,12.012,19.936,16.754,28.367,19.544c11.931,3.945,15.31,2.914,16.209,2.286c0.165-0.115,0.471-0.328,0.498-1.169
	c0.1-2.968-6.771-13.31-13.231-21.25c-3.538-3.917-10.294-10.564-17.794-13.638c-18.379-7.533-23.585-6.608-24.74-6.143
	c-0.626,0.25-0.704,0.486-0.729,0.563c-0.197,0.6,0.272,1.838,0.58,2.333C61.291,152.714,61.339,152.804,61.381,152.894z
	 M107.422,165.91c1.344,0.861,7.814,4.815,13.183,4.376c5.809-0.466,10.414-3.369,14.495-9.138c5.112-7.226,7.5-13.589,6.891-39.546
	c-0.006-0.084-0.008-0.169-0.006-0.254c-0.012-0.509-0.025-1.021-0.04-1.545c-0.2-7.22-1.831-13.622-4.091-19.597
	c-0.013-0.031-0.024-0.063-0.036-0.094c-1.908-5.026-4.259-9.75-6.573-14.401c-5.284-10.618-10.276-20.647-9.67-32.981
	c0.783-15.924,10.213-33.049,16.712-43.078c-7.079,3.813-16.858,9.146-24.3,13.461c-3.107,1.802-6.231,3.508-9.253,5.158
	c-5.949,3.249-11.706,6.393-17.496,10.275c-0.098,0.077-0.201,0.146-0.311,0.209c-4.057,2.737-8.131,5.845-12.301,9.61
	c-14.7,13.275-30.125,33.975-41.921,50.525c-9.582,13.443-18.698,21.333-23.035,24.687c2.298,1.859,6.768,5.17,14.822,10.177
	c10.068,6.258,24.129,12.794,31.188,15.952c0.047-0.323,0.121-0.649,0.228-0.975c0.38-1.153,1.315-2.722,3.622-3.645
	c1.688-0.674,6.818-2.725,28.494,6.158C96.321,154.648,103.526,161.621,107.422,165.91z M146.959,120.281
	c2.63,2.325,11.535,9.868,19.919,13.14c6.474,2.528,15.118,2.662,20.27,2.456c-4.258-6.24-11.892-19.419-11.892-33.695
	c0-14.038,5.586-27.712,8.741-34.315c-3.843,0.635-10.343,2.374-19.157,7.082c-12.474,6.663-19.694,19.802-21.75,23.987
	c-0.071,0.158-0.139,0.305-0.2,0.438c2.241,6.127,3.843,12.747,4.053,20.291C146.948,119.871,146.954,120.077,146.959,120.281z
	 M126.95,49.03c-0.188,1.325-0.317,2.643-0.382,3.946c-0.542,11.029,4.167,20.49,9.152,30.508c1.521,3.058,3.058,6.145,4.485,9.333
	c2.794-7.246,6.806-20.358,3.777-29.852C140.763,52.869,131.315,49.883,126.95,49.03z M89.856,15.329
	c-7.155,4.639-16.609,12.644-24.001,25.557c-4.958,8.661-8.214,15.271-10.35,20.179c5.206-6.038,10.522-11.671,15.769-16.409
	c4.021-3.631,7.997-6.696,11.931-9.401c0.095-2.392,0.617-7.492,3.125-13.521C87.256,19.51,88.512,17.33,89.856,15.329z
	 M117.536,154.394c-0.589,0-1.18-0.207-1.655-0.627c-1.033-0.914-1.131-2.491-0.22-3.525c0.142-0.162,10.415-12.18,9.374-32.041
	c-0.726-13.825-4.789-19.032-9.494-25.062c-3.653-4.682-7.794-9.987-10.262-19.765c-5.294-20.976,3.281-37.292,3.649-37.977
	c0.653-1.217,2.169-1.672,3.386-1.019c1.216,0.653,1.672,2.169,1.019,3.386c-0.078,0.147-8.008,15.359-3.206,34.387
	c2.21,8.755,5.681,13.202,9.355,17.911c4.787,6.134,9.737,12.478,10.545,27.876c1.156,22.03-10.137,35.067-10.617,35.611
	C118.916,154.109,118.227,154.394,117.536,154.394z M73.347,136.714c-0.964,0-1.883-0.562-2.293-1.502
	c-0.551-1.264,0.025-2.734,1.287-3.288c0.686-0.304,16.397-7.505,13.422-26.275C82.627,85.864,58.236,84.446,57.99,84.435
	c-1.379-0.067-2.442-1.24-2.375-2.619c0.067-1.378,1.201-2.445,2.619-2.375c0.286,0.014,28.701,1.674,32.467,25.425
	c3.593,22.661-16.155,31.552-16.355,31.64C74.02,136.647,73.681,136.714,73.347,136.714z M45.531,123.282
	c-4.711,0-8.544-3.833-8.544-8.545c0-4.711,3.833-8.544,8.544-8.544s8.544,3.833,8.544,8.544
	C54.075,119.449,50.242,123.282,45.531,123.282z M45.531,111.194c-1.954,0-3.544,1.59-3.544,3.544c0,1.955,1.59,3.545,3.544,3.545
	s3.544-1.59,3.544-3.545C49.075,112.783,47.485,111.194,45.531,111.194z"/>
<g>
</g>
<g>
</g>
<g>
</g>
<g>
</g>
<g>
</g>
<g>
</g>
<g>
</g>
<g>
</g>
<g>
</g>
<g>
</g>
<g>
</g>
<g>
</g>
<g>
</g>
<g>
</g>
<g>
</g>
</svg>
