<svg id="svg" version="1.1" xmlns="http://www.w3.org/2000/svg" xmlns:xlink="http://www.w3.org/1999/xlink" width="400" height="288.97795591182364" viewBox="0, 0, 400,288.97795591182364"><g id="svgg"><path id="path0" d="M22.254 26.154 L 22.254 34.682 38.584 34.682 L 54.913 34.682 54.913 32.514 L 54.913 30.347 116.908 30.347 L 178.902 30.347 178.917 33.454 C 178.944 39.220,178.955 188.505,178.928 197.304 L 178.902 206.023 178.035 206.214 C 177.558 206.319,177.168 206.524,177.168 206.670 C 177.168 206.817,176.962 206.936,176.711 206.936 C 176.460 206.936,175.484 207.706,174.543 208.647 C 173.602 209.588,172.832 210.564,172.832 210.815 C 172.832 211.066,172.712 211.272,172.564 211.272 C 171.405 211.272,171.501 218.489,172.683 220.275 C 173.083 220.880,173.410 221.483,173.410 221.616 C 173.410 222.522,177.484 225.145,178.892 225.145 C 179.215 225.145,179.480 225.275,179.480 225.434 C 179.480 225.795,183.060 225.819,183.747 225.462 C 184.023 225.318,184.828 225.028,185.537 224.818 C 187.069 224.362,189.778 221.844,190.627 220.087 C 191.047 219.216,191.380 218.908,191.974 218.840 L 192.763 218.749 192.841 224.765 L 192.919 230.780 201.951 230.857 L 210.983 230.933 210.983 215.219 L 210.983 199.504 209.206 199.319 C 206.906 199.078,197.835 199.079,194.986 199.320 L 192.775 199.507 192.775 205.245 L 192.775 210.983 191.766 210.983 C 190.767 210.983,189.595 210.277,189.595 209.675 C 189.595 209.277,187.879 207.655,187.211 207.421 C 186.579 207.199,186.608 212.968,186.700 105.564 L 186.772 22.543 120.854 22.543 L 54.937 22.543 54.853 20.159 L 54.769 17.775 38.512 17.700 L 22.254 17.625 22.254 26.154 M287.283 42.630 L 287.283 67.630 337.428 67.630 L 387.572 67.630 387.572 42.630 L 387.572 17.630 337.428 17.630 L 287.283 17.630 287.283 42.630 M193.064 31.647 L 193.064 45.376 195.809 45.376 L 198.555 45.376 198.555 71.665 L 198.555 97.955 195.882 98.038 L 193.208 98.121 193.133 113.801 L 193.059 129.480 202.023 129.480 L 210.988 129.480 210.913 113.801 L 210.838 98.121 208.454 98.037 L 206.069 97.954 206.069 71.665 L 206.069 45.376 208.526 45.376 L 210.983 45.376 210.983 31.647 L 210.983 17.919 202.023 17.919 L 193.064 17.919 193.064 31.647 M233.949 18.276 C 233.872 18.477,233.843 24.624,233.884 31.936 L 233.960 45.231 236.633 45.314 L 239.306 45.397 239.306 71.254 L 239.306 97.110 246.821 97.110 L 254.335 97.110 254.335 103.324 L 254.335 109.538 263.295 109.538 L 272.254 109.538 272.254 93.786 L 272.254 78.035 263.295 78.035 L 254.335 78.035 254.335 83.815 L 254.335 89.595 250.434 89.595 L 246.532 89.595 246.532 67.486 L 246.532 45.376 249.425 45.376 L 252.318 45.376 252.243 31.720 L 252.168 18.064 243.128 17.987 C 236.053 17.927,234.059 17.990,233.949 18.276 M381.503 42.775 L 381.503 61.852 337.500 61.778 L 293.497 61.705 293.423 42.702 L 293.348 23.699 337.426 23.699 L 381.503 23.699 381.503 42.775 M9.398 25.486 C 9.324 25.696,9.227 26.712,9.183 27.746 L 9.104 29.624 7.153 29.710 C 5.221 29.794,5.202 29.803,5.202 30.618 C 5.202 31.605,5.595 31.792,7.670 31.792 L 9.223 31.792 9.308 33.887 L 9.393 35.983 10.332 36.073 L 11.272 36.164 11.272 33.991 L 11.272 31.818 13.223 31.733 L 15.173 31.647 15.263 30.722 L 15.353 29.796 13.384 29.710 L 11.416 29.624 11.272 27.457 C 11.131 25.347,11.106 25.287,10.331 25.197 C 9.863 25.144,9.478 25.263,9.398 25.486 M329.884 27.264 C 327.555 28.520,324.928 30.446,318.642 35.508 C 315.780 37.812,313.271 39.824,313.066 39.981 C 312.816 40.170,312.581 40.154,312.358 39.930 C 311.110 38.682,307.133 39.996,304.575 42.501 C 301.797 45.221,301.643 46.559,304.063 46.968 C 304.690 47.074,305.202 47.253,305.202 47.366 C 305.202 47.767,303.011 49.632,301.590 50.441 C 296.770 53.183,294.297 58.111,297.754 58.082 C 299.535 58.067,299.836 57.838,305.604 52.095 L 310.838 46.883 314.668 46.697 C 316.873 46.590,318.497 46.620,318.497 46.770 C 318.497 46.912,317.977 48.155,317.341 49.531 C 314.073 56.604,318.701 58.558,325.279 52.882 C 327.562 50.912,327.941 50.305,327.415 49.462 C 326.873 48.594,326.220 48.689,324.691 49.855 C 322.505 51.524,322.388 51.304,323.925 48.410 L 325.000 46.387 326.753 46.127 C 328.402 45.882,328.545 45.797,329.179 44.682 C 329.550 44.030,330.235 43.011,330.700 42.416 C 331.837 40.965,331.678 40.385,330.054 40.056 C 329.341 39.912,328.716 39.762,328.665 39.723 C 328.614 39.684,329.502 38.055,330.638 36.104 C 334.653 29.205,334.961 28.287,333.684 27.010 C 332.746 26.073,332.002 26.123,329.884 27.264 M348.555 26.864 C 347.363 27.146,345.818 27.590,345.123 27.851 C 343.566 28.433,343.700 28.449,343.589 27.673 C 343.239 25.208,336.818 30.271,335.524 34.033 C 333.952 38.601,335.499 39.543,340.435 37.024 C 344.680 34.857,349.790 32.954,351.373 32.950 C 352.600 32.947,352.056 33.989,349.096 37.317 C 339.508 48.094,338.063 50.495,339.496 53.266 C 342.261 58.613,344.532 57.873,352.773 48.939 C 354.427 47.145,355.780 45.775,355.780 45.894 C 355.780 46.013,355.520 47.049,355.202 48.196 C 353.916 52.839,355.357 55.698,359.142 56.012 C 365.502 56.540,379.309 37.227,377.466 30.382 C 376.649 27.349,372.543 30.410,372.543 34.052 C 372.543 37.007,366.260 45.487,361.416 49.069 C 357.833 51.718,359.815 47.485,367.403 36.280 C 370.081 32.326,370.318 31.623,369.506 30.052 C 368.085 27.305,366.373 28.075,361.448 33.678 C 356.782 38.986,347.919 47.813,346.484 48.581 C 346.027 48.825,346.220 48.470,347.118 47.418 C 355.299 37.827,357.840 33.819,357.374 31.240 C 356.548 26.678,354.219 25.523,348.555 26.864 M325.696 34.754 C 325.511 35.112,324.723 36.468,323.946 37.767 L 322.532 40.129 320.681 40.327 C 317.859 40.629,317.899 40.525,321.871 37.220 C 325.733 34.008,326.255 33.672,325.696 34.754 M21.676 65.318 L 21.676 73.121 38.295 73.121 L 54.913 73.121 54.913 71.243 L 54.913 69.364 106.647 69.364 L 158.382 69.364 158.382 146.484 C 158.382 188.900,158.468 230.649,158.573 239.259 L 158.765 254.913 264.639 254.913 L 370.514 254.913 370.589 243.280 L 370.665 231.647 372.616 231.562 L 374.566 231.476 374.566 215.160 L 374.566 198.844 366.040 198.844 L 357.514 198.844 357.514 215.029 L 357.514 231.214 360.074 231.214 L 362.633 231.214 362.782 235.477 C 362.865 237.822,362.866 241.320,362.786 243.252 L 362.640 246.764 361.775 246.937 C 360.637 247.165,167.236 247.162,166.642 246.934 C 166.227 246.775,166.185 238.332,166.185 154.160 L 166.185 61.561 110.549 61.561 L 54.913 61.561 54.913 59.538 L 54.913 57.514 38.295 57.514 L 21.676 57.514 21.676 65.318 M22.096 97.764 C 22.019 97.965,21.990 101.640,22.033 105.929 L 22.110 113.728 38.512 113.803 L 54.913 113.878 54.913 112.044 L 54.913 110.211 95.551 110.021 C 117.901 109.916,136.305 109.902,136.447 109.990 C 136.597 110.083,136.705 138.171,136.705 177.401 C 136.706 214.390,136.792 251.579,136.897 260.043 L 137.089 275.434 262.475 275.434 L 387.861 275.434 387.861 203.035 L 387.861 130.636 371.098 130.636 L 354.335 130.636 354.335 124.711 L 354.335 118.786 345.809 118.786 L 337.283 118.786 337.283 135.116 L 337.283 151.445 345.809 151.445 L 354.335 151.445 354.335 145.087 L 354.335 138.728 367.197 138.728 L 380.058 138.728 380.058 203.324 L 380.058 267.919 262.274 267.919 L 144.489 267.919 144.523 185.381 C 144.542 139.985,144.486 102.771,144.400 102.685 C 144.313 102.598,124.143 102.460,99.578 102.377 L 54.913 102.227 54.913 99.813 L 54.913 97.399 38.575 97.399 C 25.668 97.399,22.207 97.476,22.096 97.764 M9.070 104.310 C 5.372 105.990,4.964 111.765,8.379 114.090 C 9.560 114.894,12.806 115.008,14.187 114.293 L 15.051 113.847 14.968 111.331 L 14.884 108.815 12.645 108.731 C 10.574 108.653,10.405 108.690,10.405 109.221 C 10.405 109.701,10.630 109.809,11.777 109.883 L 13.150 109.971 13.237 111.461 C 13.433 114.847,8.623 113.756,7.968 110.267 C 7.311 106.762,10.200 104.286,13.229 105.757 C 14.632 106.439,15.221 106.263,14.902 105.258 C 14.474 103.909,11.146 103.368,9.070 104.310 M295.087 134.971 L 295.087 151.156 298.123 151.156 L 301.159 151.156 301.085 180.997 L 301.012 210.838 297.867 210.838 L 294.722 210.838 294.199 209.864 C 293.304 208.194,292.533 207.513,290.173 206.306 C 289.776 206.103,289.358 205.804,289.245 205.642 C 288.789 204.990,283.207 205.291,281.647 206.051 C 280.102 206.805,276.879 209.850,276.879 210.556 C 276.879 210.894,276.429 210.983,274.717 210.983 L 272.555 210.983 272.477 205.130 L 272.399 199.277 263.295 199.277 L 254.191 199.277 254.191 215.029 L 254.191 230.780 263.367 230.857 L 272.543 230.933 272.543 224.860 L 272.543 218.786 274.428 218.786 C 276.207 218.786,276.333 218.831,276.662 219.581 C 276.854 220.018,277.176 220.480,277.378 220.607 C 277.580 220.734,277.746 221.001,277.746 221.200 C 277.746 221.580,279.498 223.410,279.861 223.410 C 279.976 223.410,280.565 223.738,281.170 224.138 C 282.956 225.320,290.173 225.416,290.173 224.257 C 290.173 224.109,290.379 223.988,290.630 223.988 C 291.224 223.988,294.509 220.704,294.509 220.110 C 294.509 219.859,294.639 219.653,294.798 219.653 C 294.957 219.653,295.087 219.458,295.087 219.220 C 295.087 218.846,296.055 218.786,302.070 218.786 L 309.054 218.786 308.855 195.213 C 308.745 182.248,308.744 167.037,308.853 161.411 L 309.052 151.181 310.812 151.096 L 312.572 151.012 312.647 134.899 L 312.722 118.786 303.904 118.786 L 295.087 118.786 295.087 134.971 M316.763 134.971 L 316.763 151.156 318.884 151.156 L 321.005 151.156 321.196 160.741 C 321.437 172.840,321.437 181.229,321.195 191.418 L 321.005 199.454 319.679 199.382 C 318.949 199.343,317.735 199.336,316.980 199.366 L 315.607 199.422 315.607 215.173 L 315.607 230.925 324.277 230.925 L 332.948 230.925 332.948 215.173 L 332.948 199.422 332.153 199.399 C 331.716 199.386,330.838 199.353,330.202 199.326 L 329.046 199.277 328.972 175.217 L 328.898 151.156 330.923 151.156 L 332.948 151.156 332.948 134.971 L 332.948 118.786 324.855 118.786 L 316.763 118.786 316.763 134.971 M69.653 180.319 C 68.759 180.612,24.387 206.539,23.437 207.323 C 21.928 208.568,21.978 207.391,21.973 241.618 C 21.966 279.520,21.356 275.723,27.457 275.723 C 33.512 275.723,32.946 278.733,32.947 246.517 C 32.948 226.099,33.030 219.687,33.295 219.422 C 33.561 219.156,42.319 219.075,70.954 219.075 C 99.589 219.075,108.347 219.156,108.613 219.422 C 108.878 219.687,108.960 226.145,108.960 246.730 L 108.960 273.690 109.802 274.634 L 110.645 275.578 114.065 275.659 C 120.600 275.812,119.962 279.600,119.872 241.164 L 119.798 209.351 119.039 208.216 C 118.405 207.268,116.737 206.179,108.923 201.611 C 103.777 198.603,93.504 192.592,86.095 188.254 C 72.408 180.241,71.390 179.749,69.653 180.319 M337.352 210.766 C 337.192 210.965,336.973 211.582,336.866 212.139 C 336.535 213.859,336.112 214.451,335.211 214.451 C 334.586 214.451,334.393 214.587,334.393 215.029 C 334.393 216.253,336.827 215.822,337.491 214.481 C 338.118 213.213,338.728 213.592,338.728 215.250 C 338.728 215.693,338.913 216.320,339.138 216.641 C 339.363 216.963,339.639 217.714,339.751 218.309 C 339.863 218.905,340.149 219.587,340.387 219.826 C 340.849 220.288,340.773 220.367,341.815 218.353 C 341.979 218.035,342.323 217.373,342.578 216.881 C 342.833 216.390,343.129 215.444,343.235 214.779 C 343.474 213.284,343.931 212.920,343.931 214.225 C 343.931 214.755,344.100 215.446,344.307 215.759 C 344.514 216.073,344.859 217.041,345.073 217.910 C 345.724 220.557,346.547 220.873,347.134 218.702 C 347.508 217.318,347.852 216.399,348.437 215.222 C 348.661 214.772,348.859 214.057,348.877 213.633 C 348.904 213.033,348.942 212.990,349.050 213.439 C 349.127 213.757,349.358 214.408,349.564 214.884 C 349.769 215.361,350.093 216.402,350.284 217.197 C 351.075 220.486,351.574 220.666,352.728 218.078 L 353.560 216.213 354.887 216.127 C 357.160 215.979,356.801 214.884,354.480 214.884 L 352.746 214.884 352.312 216.256 C 351.781 217.937,351.555 217.980,351.297 216.450 C 351.187 215.802,350.916 214.924,350.695 214.499 C 350.474 214.075,350.292 213.461,350.291 213.133 C 350.290 212.806,350.098 212.286,349.865 211.977 C 349.631 211.669,349.436 211.189,349.431 210.910 C 349.413 209.902,348.307 210.323,348.102 211.416 C 347.998 211.973,347.797 212.428,347.656 212.428 C 347.514 212.428,347.399 212.743,347.399 213.128 C 347.399 214.305,346.750 216.882,346.340 217.331 C 346.011 217.691,345.954 217.595,345.954 216.680 C 345.954 216.090,345.844 215.607,345.711 215.607 C 345.577 215.607,345.296 214.859,345.086 213.945 C 344.876 213.031,344.596 212.160,344.462 212.009 C 344.329 211.858,344.220 211.435,344.220 211.069 C 344.220 209.824,343.144 210.229,342.919 211.559 C 342.812 212.194,342.617 212.780,342.486 212.861 C 342.354 212.942,342.155 213.561,342.043 214.236 C 341.423 217.955,340.573 218.211,339.884 214.884 C 339.687 213.931,339.346 212.894,339.127 212.580 C 338.908 212.267,338.728 211.649,338.728 211.207 C 338.728 210.337,337.909 210.075,337.352 210.766 M56.335 224.849 C 52.255 225.569,49.855 227.896,47.683 233.237 C 47.005 234.906,46.416 236.313,46.376 236.362 C 46.335 236.412,45.623 236.330,44.792 236.179 C 39.783 235.268,37.737 241.225,42.291 243.457 C 43.116 243.862,43.338 244.113,43.184 244.469 C 41.804 247.643,41.285 252.498,41.386 261.295 L 41.474 268.977 42.307 270.068 C 45.444 274.178,52.404 272.074,52.820 266.889 L 52.969 265.029 70.993 265.029 L 89.017 265.029 89.017 266.557 C 89.017 270.252,90.741 271.821,94.798 271.821 C 98.114 271.821,98.841 271.472,99.944 269.347 C 101.339 266.662,100.566 249.462,98.848 244.951 C 98.491 244.013,98.520 243.973,100.279 242.998 C 104.180 240.836,101.638 235.357,97.115 236.179 C 96.285 236.330,95.569 236.412,95.525 236.362 C 95.481 236.313,94.774 234.702,93.954 232.782 C 92.203 228.686,90.862 227.107,87.890 225.644 L 85.996 224.711 71.828 224.663 C 64.035 224.637,57.063 224.720,56.335 224.849 M85.755 228.353 C 87.790 229.339,88.264 230.182,91.778 239.083 C 92.962 242.081,92.990 242.492,92.077 243.553 L 91.380 244.364 71.002 244.364 L 50.625 244.364 49.879 243.663 C 48.816 242.665,48.918 241.931,50.753 237.391 C 53.812 229.818,54.334 228.994,56.656 228.067 C 58.280 227.419,84.354 227.675,85.755 228.353 M179.834 228.614 C 177.336 230.137,178.127 232.752,181.576 234.376 C 185.046 236.011,182.862 238.320,178.974 237.126 C 178.433 236.960,178.324 237.036,178.324 237.579 C 178.324 239.537,183.626 239.545,184.674 237.588 C 185.602 235.854,184.891 234.074,182.865 233.059 C 179.567 231.407,179.410 228.593,182.680 229.733 C 184.077 230.220,184.446 230.149,184.341 229.415 C 184.147 228.062,181.508 227.593,179.834 228.614 M59.274 251.983 C 60.066 252.961,60.066 256.577,59.274 257.555 C 58.732 258.224,58.626 258.237,53.759 258.237 C 47.802 258.237,47.977 258.342,47.977 254.758 C 47.977 251.233,48.124 251.151,54.289 251.238 C 58.563 251.298,58.742 251.325,59.274 251.983 M93.379 251.983 C 94.170 252.960,94.170 256.577,93.379 257.555 C 92.851 258.207,92.640 258.241,88.573 258.331 C 82.223 258.472,82.081 258.394,82.081 254.793 C 82.081 251.228,82.218 251.151,88.393 251.238 C 92.667 251.298,92.846 251.325,93.379 251.983 " stroke="none" fill="#070707" fill-rule="evenodd"></path><path id="path1" d="M0.004 144.509 L -0.000 289.017 200.000 289.017 L 400.000 289.017 400.000 144.509 L 400.000 0.000 200.004 -0.000 L 0.009 -0.000 0.004 144.509 M54.853 20.159 L 54.937 22.543 120.854 22.543 L 186.772 22.543 186.700 105.564 C 186.608 212.968,186.579 207.199,187.211 207.421 C 187.879 207.655,189.595 209.277,189.595 209.675 C 189.595 210.277,190.767 210.983,191.766 210.983 L 192.775 210.983 192.775 205.245 L 192.775 199.507 194.986 199.320 C 197.835 199.079,206.906 199.078,209.206 199.319 L 210.983 199.504 210.983 215.219 L 210.983 230.933 201.951 230.857 L 192.919 230.780 192.841 224.765 L 192.763 218.749 191.974 218.840 C 191.380 218.908,191.047 219.216,190.627 220.087 C 189.778 221.844,187.069 224.362,185.537 224.818 C 184.828 225.028,184.023 225.318,183.747 225.462 C 183.060 225.819,179.480 225.795,179.480 225.434 C 179.480 225.275,179.215 225.145,178.892 225.145 C 177.484 225.145,173.410 222.522,173.410 221.616 C 173.410 221.483,173.083 220.880,172.683 220.275 C 171.501 218.489,171.405 211.272,172.564 211.272 C 172.712 211.272,172.832 211.066,172.832 210.815 C 172.832 210.564,173.602 209.588,174.543 208.647 C 175.484 207.706,176.460 206.936,176.711 206.936 C 176.962 206.936,177.168 206.817,177.168 206.670 C 177.168 206.524,177.558 206.319,178.035 206.214 L 178.902 206.023 178.928 197.304 C 178.955 188.505,178.944 39.220,178.917 33.454 L 178.902 30.347 116.908 30.347 L 54.913 30.347 54.913 32.514 L 54.913 34.682 38.584 34.682 L 22.254 34.682 22.254 26.154 L 22.254 17.625 38.512 17.700 L 54.769 17.775 54.853 20.159 M387.572 42.630 L 387.572 67.630 337.428 67.630 L 287.283 67.630 287.283 42.630 L 287.283 17.630 337.428 17.630 L 387.572 17.630 387.572 42.630 M210.983 31.647 L 210.983 45.376 208.526 45.376 L 206.069 45.376 206.069 71.665 L 206.069 97.954 208.454 98.037 L 210.838 98.121 210.913 113.801 L 210.988 129.480 202.023 129.480 L 193.059 129.480 193.133 113.801 L 193.208 98.121 195.882 98.038 L 198.555 97.955 198.555 71.665 L 198.555 45.376 195.809 45.376 L 193.064 45.376 193.064 31.647 L 193.064 17.919 202.023 17.919 L 210.983 17.919 210.983 31.647 M252.243 31.720 L 252.318 45.376 249.425 45.376 L 246.532 45.376 246.532 67.486 L 246.532 89.595 250.434 89.595 L 254.335 89.595 254.335 83.815 L 254.335 78.035 263.295 78.035 L 272.254 78.035 272.254 93.786 L 272.254 109.538 263.295 109.538 L 254.335 109.538 254.335 103.324 L 254.335 97.110 246.821 97.110 L 239.306 97.110 239.306 71.254 L 239.306 45.397 236.633 45.314 L 233.960 45.231 233.884 31.936 C 233.843 24.624,233.872 18.477,233.949 18.276 C 234.059 17.990,236.053 17.927,243.128 17.987 L 252.168 18.064 252.243 31.720 M293.423 42.702 L 293.497 61.705 337.500 61.778 L 381.503 61.852 381.503 42.775 L 381.503 23.699 337.426 23.699 L 293.348 23.699 293.423 42.702 M11.272 27.457 L 11.416 29.624 13.384 29.710 L 15.353 29.796 15.263 30.722 L 15.173 31.647 13.223 31.733 L 11.272 31.818 11.272 33.991 L 11.272 36.164 10.332 36.073 L 9.393 35.983 9.308 33.887 L 9.223 31.792 7.670 31.792 C 5.595 31.792,5.202 31.605,5.202 30.618 C 5.202 29.803,5.221 29.794,7.153 29.710 L 9.104 29.624 9.183 27.746 C 9.287 25.286,9.376 25.088,10.331 25.197 C 11.106 25.287,11.131 25.347,11.272 27.457 M333.684 27.010 C 334.961 28.287,334.653 29.205,330.638 36.104 C 329.502 38.055,328.614 39.684,328.665 39.723 C 328.716 39.762,329.341 39.912,330.054 40.056 C 331.678 40.385,331.837 40.965,330.700 42.416 C 330.235 43.011,329.550 44.030,329.179 44.682 C 328.545 45.797,328.402 45.882,326.753 46.127 L 325.000 46.387 323.925 48.410 C 322.388 51.304,322.505 51.524,324.691 49.855 C 326.220 48.689,326.873 48.594,327.415 49.462 C 327.941 50.305,327.562 50.912,325.279 52.882 C 318.701 58.558,314.073 56.604,317.341 49.531 C 317.977 48.155,318.497 46.912,318.497 46.770 C 318.497 46.620,316.873 46.590,314.668 46.697 L 310.838 46.883 305.604 52.095 C 299.836 57.838,299.535 58.067,297.754 58.082 C 294.297 58.111,296.770 53.183,301.590 50.441 C 303.011 49.632,305.202 47.767,305.202 47.366 C 305.202 47.253,304.690 47.074,304.063 46.968 C 301.643 46.559,301.797 45.221,304.575 42.501 C 307.133 39.996,311.110 38.682,312.358 39.930 C 312.581 40.154,312.816 40.170,313.066 39.981 C 313.271 39.824,315.780 37.812,318.642 35.508 C 329.402 26.844,332.032 25.358,333.684 27.010 M354.755 26.747 C 356.521 27.485,357.875 31.115,357.250 33.436 C 356.737 35.341,352.880 40.663,347.118 47.418 C 346.220 48.470,346.027 48.825,346.484 48.581 C 347.919 47.813,356.782 38.986,361.448 33.678 C 366.373 28.075,368.085 27.305,369.506 30.052 C 370.318 31.623,370.081 32.326,367.403 36.280 C 359.815 47.485,357.833 51.718,361.416 49.069 C 366.260 45.487,372.543 37.007,372.543 34.052 C 372.543 30.410,376.649 27.349,377.466 30.382 C 379.309 37.227,365.502 56.540,359.142 56.012 C 355.357 55.698,353.916 52.839,355.202 48.196 C 355.520 47.049,355.780 46.013,355.780 45.894 C 355.780 45.775,354.427 47.145,352.773 48.939 C 344.532 57.873,342.261 58.613,339.496 53.266 C 338.063 50.495,339.508 48.094,349.096 37.317 C 352.056 33.989,352.600 32.947,351.373 32.950 C 349.790 32.954,344.680 34.857,340.435 37.024 C 335.499 39.543,333.952 38.601,335.524 34.033 C 336.328 31.694,336.798 31.113,339.692 28.874 C 342.430 26.755,343.416 26.451,343.589 27.673 C 343.700 28.449,343.566 28.433,345.123 27.851 C 348.878 26.446,352.924 25.982,354.755 26.747 M321.871 37.220 C 317.899 40.525,317.859 40.629,320.681 40.327 L 322.532 40.129 323.946 37.767 C 326.694 33.175,326.725 33.183,321.871 37.220 M54.913 59.538 L 54.913 61.561 110.549 61.561 L 166.185 61.561 166.185 154.160 C 166.185 238.332,166.227 246.775,166.642 246.934 C 167.236 247.162,360.637 247.165,361.775 246.937 L 362.640 246.764 362.786 243.252 C 362.866 241.320,362.865 237.822,362.782 235.477 L 362.633 231.214 360.074 231.214 L 357.514 231.214 357.514 215.029 L 357.514 198.844 366.040 198.844 L 374.566 198.844 374.566 215.160 L 374.566 231.476 372.616 231.562 L 370.665 231.647 370.589 243.280 L 370.514 254.913 264.639 254.913 L 158.765 254.913 158.573 239.259 C 158.468 230.649,158.382 188.900,158.382 146.484 L 158.382 69.364 106.647 69.364 L 54.913 69.364 54.913 71.243 L 54.913 73.121 38.295 73.121 L 21.676 73.121 21.676 65.318 L 21.676 57.514 38.295 57.514 L 54.913 57.514 54.913 59.538 M54.913 99.813 L 54.913 102.227 99.578 102.377 C 124.143 102.460,144.313 102.598,144.400 102.685 C 144.486 102.771,144.542 139.985,144.523 185.381 L 144.489 267.919 262.274 267.919 L 380.058 267.919 380.058 203.324 L 380.058 138.728 367.197 138.728 L 354.335 138.728 354.335 145.087 L 354.335 151.445 345.809 151.445 L 337.283 151.445 337.283 135.116 L 337.283 118.786 345.809 118.786 L 354.335 118.786 354.335 124.711 L 354.335 130.636 371.098 130.636 L 387.861 130.636 387.861 203.035 L 387.861 275.434 262.475 275.434 L 137.089 275.434 136.897 260.043 C 136.792 251.579,136.706 214.390,136.705 177.401 C 136.705 138.171,136.597 110.083,136.447 109.990 C 136.305 109.902,117.901 109.916,95.551 110.021 L 54.913 110.211 54.913 112.044 L 54.913 113.878 38.512 113.803 L 22.110 113.728 22.033 105.929 C 21.990 101.640,22.019 97.965,22.096 97.764 C 22.207 97.476,25.668 97.399,38.575 97.399 L 54.913 97.399 54.913 99.813 M13.567 104.218 C 14.723 104.680,15.325 105.600,14.810 106.115 C 14.634 106.291,14.059 106.160,13.229 105.757 C 10.200 104.286,7.311 106.762,7.968 110.267 C 8.623 113.756,13.433 114.847,13.237 111.461 L 13.150 109.971 11.777 109.883 C 10.630 109.809,10.405 109.701,10.405 109.221 C 10.405 108.690,10.574 108.653,12.645 108.731 L 14.884 108.815 14.968 111.331 L 15.051 113.847 14.187 114.293 C 10.297 116.305,6.214 113.810,6.214 109.422 C 6.214 105.046,9.617 102.637,13.567 104.218 M312.647 134.899 L 312.572 151.012 310.812 151.096 L 309.052 151.181 308.853 161.411 C 308.744 167.037,308.745 182.248,308.855 195.213 L 309.054 218.786 302.070 218.786 C 296.055 218.786,295.087 218.846,295.087 219.220 C 295.087 219.458,294.957 219.653,294.798 219.653 C 294.639 219.653,294.509 219.859,294.509 220.110 C 294.509 220.704,291.224 223.988,290.630 223.988 C 290.379 223.988,290.173 224.109,290.173 224.257 C 290.173 225.416,282.956 225.320,281.170 224.138 C 280.565 223.738,279.976 223.410,279.861 223.410 C 279.498 223.410,277.746 221.580,277.746 221.200 C 277.746 221.001,277.580 220.734,277.378 220.607 C 277.176 220.480,276.854 220.018,276.662 219.581 C 276.333 218.831,276.207 218.786,274.428 218.786 L 272.543 218.786 272.543 224.860 L 272.543 230.933 263.367 230.857 L 254.191 230.780 254.191 215.029 L 254.191 199.277 263.295 199.277 L 272.399 199.277 272.477 205.130 L 272.555 210.983 274.717 210.983 C 276.429 210.983,276.879 210.894,276.879 210.556 C 276.879 209.850,280.102 206.805,281.647 206.051 C 283.207 205.291,288.789 204.990,289.245 205.642 C 289.358 205.804,289.776 206.103,290.173 206.306 C 292.533 207.513,293.304 208.194,294.199 209.864 L 294.722 210.838 297.867 210.838 L 301.012 210.838 301.085 180.997 L 301.159 151.156 298.123 151.156 L 295.087 151.156 295.087 134.971 L 295.087 118.786 303.904 118.786 L 312.722 118.786 312.647 134.899 M332.948 134.971 L 332.948 151.156 330.923 151.156 L 328.898 151.156 328.972 175.217 L 329.046 199.277 330.202 199.326 C 330.838 199.353,331.716 199.386,332.153 199.399 L 332.948 199.422 332.948 215.173 L 332.948 230.925 324.277 230.925 L 315.607 230.925 315.607 215.173 L 315.607 199.422 316.980 199.366 C 317.735 199.336,318.949 199.343,319.679 199.382 L 321.005 199.454 321.195 191.418 C 321.437 181.229,321.437 172.840,321.196 160.741 L 321.005 151.156 318.884 151.156 L 316.763 151.156 316.763 134.971 L 316.763 118.786 324.855 118.786 L 332.948 118.786 332.948 134.971 M86.095 188.254 C 93.504 192.592,103.777 198.603,108.923 201.611 C 116.737 206.179,118.405 207.268,119.039 208.216 L 119.798 209.351 119.872 241.164 C 119.962 279.600,120.600 275.812,114.065 275.659 L 110.645 275.578 109.802 274.634 L 108.960 273.690 108.960 246.730 C 108.960 226.145,108.878 219.687,108.613 219.422 C 108.347 219.156,99.589 219.075,70.954 219.075 C 42.319 219.075,33.561 219.156,33.295 219.422 C 33.030 219.687,32.948 226.099,32.947 246.517 C 32.946 278.733,33.512 275.723,27.457 275.723 C 21.356 275.723,21.966 279.520,21.973 241.618 C 21.978 207.391,21.928 208.568,23.437 207.323 C 24.387 206.539,68.759 180.612,69.653 180.319 C 71.390 179.749,72.408 180.241,86.095 188.254 M338.728 211.207 C 338.728 211.649,338.908 212.267,339.127 212.580 C 339.346 212.894,339.687 213.931,339.884 214.884 C 340.573 218.211,341.423 217.955,342.043 214.236 C 342.155 213.561,342.354 212.942,342.486 212.861 C 342.617 212.780,342.812 212.194,342.919 211.559 C 343.144 210.229,344.220 209.824,344.220 211.069 C 344.220 211.435,344.329 211.858,344.462 212.009 C 344.596 212.160,344.876 213.031,345.086 213.945 C 345.296 214.859,345.577 215.607,345.711 215.607 C 345.844 215.607,345.954 216.090,345.954 216.680 C 345.954 217.595,346.011 217.691,346.340 217.331 C 346.750 216.882,347.399 214.305,347.399 213.128 C 347.399 212.743,347.514 212.428,347.656 212.428 C 347.797 212.428,347.998 211.973,348.102 211.416 C 348.307 210.323,349.413 209.902,349.431 210.910 C 349.436 211.189,349.631 211.669,349.865 211.977 C 350.098 212.286,350.290 212.806,350.291 213.133 C 350.292 213.461,350.474 214.075,350.695 214.499 C 350.916 214.924,351.187 215.802,351.297 216.450 C 351.555 217.980,351.781 217.937,352.312 216.256 L 352.746 214.884 354.480 214.884 C 356.801 214.884,357.160 215.979,354.887 216.127 L 353.560 216.213 352.728 218.078 C 351.574 220.666,351.075 220.486,350.284 217.197 C 350.093 216.402,349.769 215.361,349.564 214.884 C 349.358 214.408,349.127 213.757,349.050 213.439 C 348.942 212.990,348.904 213.033,348.877 213.633 C 348.859 214.057,348.661 214.772,348.437 215.222 C 347.852 216.399,347.508 217.318,347.134 218.702 C 346.547 220.873,345.724 220.557,345.073 217.910 C 344.859 217.041,344.514 216.073,344.307 215.759 C 344.100 215.446,343.931 214.755,343.931 214.225 C 343.931 212.920,343.474 213.284,343.235 214.779 C 343.129 215.444,342.833 216.390,342.578 216.881 C 342.323 217.373,341.979 218.035,341.815 218.353 C 340.773 220.367,340.849 220.288,340.387 219.826 C 340.149 219.587,339.863 218.905,339.751 218.309 C 339.639 217.714,339.363 216.963,339.138 216.641 C 338.913 216.320,338.728 215.693,338.728 215.250 C 338.728 213.592,338.118 213.213,337.491 214.481 C 336.827 215.822,334.393 216.253,334.393 215.029 C 334.393 214.587,334.586 214.451,335.211 214.451 C 336.112 214.451,336.535 213.859,336.866 212.139 C 337.219 210.307,338.728 209.552,338.728 211.207 M87.890 225.644 C 90.862 227.107,92.203 228.686,93.954 232.782 C 94.774 234.702,95.481 236.313,95.525 236.362 C 95.569 236.412,96.285 236.330,97.115 236.179 C 101.638 235.357,104.180 240.836,100.279 242.998 C 98.520 243.973,98.491 244.013,98.848 244.951 C 100.566 249.462,101.339 266.662,99.944 269.347 C 98.841 271.472,98.114 271.821,94.798 271.821 C 90.741 271.821,89.017 270.252,89.017 266.557 L 89.017 265.029 70.993 265.029 L 52.969 265.029 52.820 266.889 C 52.404 272.074,45.444 274.178,42.307 270.068 L 41.474 268.977 41.386 261.295 C 41.285 252.498,41.804 247.643,43.184 244.469 C 43.338 244.113,43.116 243.862,42.291 243.457 C 37.737 241.225,39.783 235.268,44.792 236.179 C 45.623 236.330,46.335 236.412,46.376 236.362 C 46.416 236.313,47.005 234.906,47.683 233.237 C 51.103 224.826,51.752 224.595,71.828 224.663 L 85.996 224.711 87.890 225.644 M56.656 228.067 C 54.334 228.994,53.812 229.818,50.753 237.391 C 48.918 241.931,48.816 242.665,49.879 243.663 L 50.625 244.364 71.002 244.364 L 91.380 244.364 92.077 243.553 C 93.147 242.310,93.139 242.281,89.593 233.674 C 87.028 227.449,87.948 227.741,70.935 227.764 C 62.743 227.775,57.087 227.895,56.656 228.067 M183.526 228.407 C 185.206 229.254,184.496 230.366,182.680 229.733 C 179.410 228.593,179.567 231.407,182.865 233.059 C 184.891 234.074,185.602 235.854,184.674 237.588 C 183.626 239.545,178.324 239.537,178.324 237.579 C 178.324 237.036,178.433 236.960,178.974 237.126 C 182.862 238.320,185.046 236.011,181.576 234.376 C 178.975 233.151,177.955 231.642,178.594 229.964 C 179.197 228.376,181.821 227.548,183.526 228.407 M49.422 251.348 C 48.194 251.836,47.977 252.348,47.977 254.758 C 47.977 258.342,47.802 258.237,53.759 258.237 C 59.794 258.237,59.827 258.218,59.827 254.769 C 59.827 251.384,59.717 251.315,54.289 251.238 C 51.851 251.204,49.660 251.253,49.422 251.348 M83.526 251.348 C 81.305 252.231,81.405 257.694,83.653 258.258 C 85.667 258.764,92.819 258.246,93.379 257.555 C 94.170 256.577,94.170 252.960,93.379 251.983 C 92.828 251.302,84.922 250.793,83.526 251.348 " stroke="none" fill="#fbfbfb" fill-rule="evenodd"></path></g></svg>